# xmcd
#
# Track frame offsets: 
#        150
#        13177
#        25724
#        40492
#        52928
#        65307
#        81731
#        95317
#        104568
#        120739
#        134300
#        143999
#        157097
#        167580
#        187946
#        200337
#        214318
#        224812
#        237362
#        248480
#        261967
#        278939
#        291838
#        302407
#        317793
#        332463
#
# Disc length: 4623 seconds
#
# Revision: 1
# Processed by: cddbd v1.5.2PL0 Copyright (c) Steve Scherf et al.
# Submitted via: ExactAudioCopyFreeDBPlugin 1.0
#
DISCID=87120d1a
DTITLE=Various Artist - Jazzclub Easy - The Fantastic Sound Of Werner Twardy
DYEAR=2010
DGENRE=Jazz
TTITLE0=Orchester Werner Twardy - Merry Go Round
TTITLE1=T.W. Ardy - Ramona
TTITLE2=Horst Fischer - Blueberry Hill
TTITLE3=Heinz Schachtner - Siberia
TTITLE4=Otto Bredl and Jiggs Whigham - Lovely Lady
TTITLE5=Heinz Schachtner - It's A Lonesome Old Town
TTITLE6=Fritz Schulz-Reichel - On A Persian Market
TTITLE7=Heinz Schachtner - I'm In The Mood For Love
TTITLE8=Otto Bredl and Jiggs Whigham - Avant De Mourir
TTITLE9=Heinz Schachtner - The More I See You
TTITLE10=T.W. Ardy - Always
TTITLE11=Orchester Werner Twardy - Old Man Moses
TTITLE12=Heinz Schachtner - Indian Love Call
TTITLE13=T.W. Ardy - Get Happy - Baubles, Bangles and Beads - Georgy G
TTITLE13=irl
TTITLE14=Heinz Schachtner - Bye Bye Blackbird
TTITLE15=T.W. Ardy - America
TTITLE16=Heinz Schachtner - Mucho Mucho Mucho
TTITLE17=Leif Uvemark - The Shadow Of Your Smile
TTITLE18=Fritz Schulz-Reichel - Hallelujah
TTITLE19=Henry Arland - Gloomy Sunday
TTITLE20=Heinz Schachtner - Premier Bal
TTITLE21=Horst Fischer - Ciribiribin
TTITLE22=Henry Arland - Caravan
TTITLE23=Horst Fischer - Butterfly
TTITLE24=Leif Uvemark - Love Is A Many Splendored Thing
TTITLE25=T.W. Aedy - Saint Louis Blues - Deep Purple
EXTD=YEAR: 2010
EXTT0=
EXTT1=
EXTT2=
EXTT3=
EXTT4=
EXTT5=
EXTT6=
EXTT7=
EXTT8=
EXTT9=
EXTT10=
EXTT11=
EXTT12=
EXTT13=
EXTT14=
EXTT15=
EXTT16=
EXTT17=
EXTT18=
EXTT19=
EXTT20=
EXTT21=
EXTT22=
EXTT23=
EXTT24=
EXTT25=
PLAYORDER=
